<?xml version="1.0" standalone="no"?>
<!DOCTYPE svg PUBLIC "-//W3C//DTD SVG 1.1//EN" "http://www.w3.org/Graphics/SVG/1.1/DTD/svg11.dtd" >
<svg xmlns="http://www.w3.org/2000/svg">
<metadata></metadata>
<defs>
<font id="pj_standardregular" horiz-adv-x="0" >
<font-face units-per-em="2048" ascent="1638" descent="-410" />
<missing-glyph horiz-adv-x="750" />
<glyph unicode="&#x2018;&#x2018;" horiz-adv-x="742" d="M74 1150.5q-6 28.5 0 59.5q7 32 25.5 63.5t43.5 58.5t54 46.5t59 27.5q28 7 46 4t23 -12t-5.5 -21t-40.5 -21q-5 -3 -17.5 -9t-27 -19.5t-26.5 -33.5t-14 -49q48 0 72 -28.5t24.5 -63.5t-23 -65t-69.5 -34q-34 0 -60 12t-42 34t-22 50.5zM442 1147.5q-6 28.5 0 60.5 q8 31 27 62.5t43.5 58.5t54 46.5t59.5 26.5q26 8 44 5t23.5 -12t-5 -21t-40.5 -21q-4 -3 -17 -9t-27 -19.5t-26 -34t-16 -48.5q48 0 72 -28.5t25 -64t-22 -65.5t-70 -32q-35 0 -60 12t-42 33.5t-23 50z" />
<glyph unicode="&#x2019;&#x2019;" horiz-adv-x="735" d="M83 1067q-5 9 5.5 21t40.5 20q5 2 17.5 9t27 20t26.5 33t14 50q-48 0 -72 28t-24.5 63.5t23 65.5t69.5 33q33 0 59.5 -12t42.5 -34t22 -50t0 -60q-7 -32 -25.5 -64t-43.5 -59t-55 -46.5t-58 -25.5q-28 -7 -46 -4t-23 12zM452.5 1063q-5.5 9 5 21t40.5 22q4 1 17 7.5 t27 20.5t26 33t16 49q-48 0 -72 29t-25 64t22 65t70 33q33 0 59 -12t43 -33.5t23 -50.5t0 -60q-8 -31 -27 -63.5t-43.5 -59.5t-54.5 -46.5t-59 -25.5q-26 -8 -44 -5t-23.5 12z" />
<glyph />
<glyph unicode="&#xd;" horiz-adv-x="868" />
<glyph unicode=" "  horiz-adv-x="750" />
<glyph unicode="&#x09;" horiz-adv-x="750" />
<glyph unicode="&#xa0;" horiz-adv-x="750" />
<glyph unicode="!" horiz-adv-x="583" d="M207 96q0 39 27 66t62 27q37 0 64 -27t27 -66t-27 -65.5t-64 -26.5q-35 0 -62 26.5t-27 65.5zM230 314v964h134v-964h-134z" />
<glyph unicode="&#x22;" horiz-adv-x="552" d="M98 942v358h98v-358h-98zM309 942v358h99v-358h-99z" />
<glyph unicode="#" horiz-adv-x="1077" d="M63 452v126h225l40 304h-265v126h282l59 430h128l-58 -430h225l59 430h127l-57 -430h207v-126h-225l-40 -304h265v-126h-282l-63 -452h-128l62 452h-225l-61 -452h-130l62 452h-207zM416 578h224l41 304h-223z" />
<glyph unicode="$" horiz-adv-x="901" d="M123 252l102 14q19 -64 66 -103t105 -55v399q-86 13 -143 56t-84.5 101t-27.5 122t28.5 121t85.5 100t143 57v76h90v-72q54 -4 105 -22t93 -50t70 -74t38 -92l-106 -24q0 36 -18.5 66t-48 52t-64.5 35t-69 16l-2 -379q114 -4 190.5 -48t114 -109t37.5 -141t-38 -141 t-114 -109.5t-190 -47.5v-86h-90v94q-51 10 -96.5 32t-82.5 54t-61 72t-33 86zM242 791.5q0 -57.5 39 -110.5t115 -73l2 360q-78 -18 -117 -68.5t-39 -108zM486 96q46 0 90.5 13t79 39t56.5 63.5t22 86.5q-5 62 -32 101t-64.5 61t-78 31t-73.5 10v-405z" />
<glyph unicode="%" horiz-adv-x="1270" d="M171 926q24 78 99 114q75 38 154 8q83 -25 116 -98q36 -76 8 -154q-14 -40 -40 -70t-60 -46.5t-73 -19.5t-79 10q-80 28 -118 101q-36 77 -7 155zM192 64l814 1084l98 -71l-820 -1083zM227.5 850q2.5 -26 13.5 -49t30.5 -40t46.5 -26q51 -18 99.5 6t66.5 78 q18 51 -6.5 99t-75.5 66q-27 9 -53.5 6.5t-48.5 -13.5t-39.5 -30t-26.5 -44q-9 -27 -6.5 -53zM708 310q24 78 99 114q75 40 155 10q82 -26 115 -100q36 -74 7 -152q-13 -41 -39.5 -71t-60 -46.5t-72.5 -19.5t-80 11q-79 26 -116 100q-36 76 -8 154zM764 234.5 q2 -26.5 13.5 -48.5t31 -39.5t46.5 -26.5q51 -18 100 6t67 78q18 51 -7 99t-76 66q-27 9 -53 7t-49 -13.5t-40 -30t-26 -44.5q-9 -27 -7 -53.5z" />
<glyph unicode="&#x26;" horiz-adv-x="1075" d="M41.5 346q3.5 80 36.5 151t91.5 128t134.5 91q-25 26 -49.5 55t-43.5 60t-29.5 67t-7.5 78q-3 47 16.5 90.5t54.5 78t82.5 55t100.5 18.5q46 -2 90 -22t77 -53t52 -76t16 -91q1 -72 -18 -120.5t-65 -95.5q-26 -31 -52 -51.5t-45 -33.5l204 -241l155 278l86 -60l-169 -306 q108 -130 163.5 -196t58.5 -69l-77 -83q-1 5 -202 246l-8 -13q-48 -115 -131 -172t-231 -59q-46 2 -87 17.5t-75 42t-59 59.5t-41 69q-32 78 -28.5 158zM158 322q4 -66 46 -115q48 -57 112.5 -69t127 10t113.5 70.5t73 114.5l-248 293q-72 -14 -124 -63t-78 -112t-22 -129z M288 956q-3 -40 17.5 -67.5t42.5 -54.5q20 -21 35 -38.5t27 -33.5l12 6q24 20 51 41.5t48 47t33 54.5t8 65q-6 48 -43 84t-95 40q-72 0 -104 -46q-32 -44 -32 -78v-20z" />
<glyph unicode="'" horiz-adv-x="489" d="M116 978l202 290l99 -70l-203 -289z" />
<glyph unicode="(" horiz-adv-x="709" d="M188 543q0 163 27.5 313t82.5 276q58 128 134 208t162 100l22 -148q-126 -32 -217 -236q-45 -105 -70 -236.5t-25 -276.5q0 -150 26 -280.5t72 -234.5q42 -100 98 -158.5t120 -75.5l-26 -150q-86 24 -162 103t-134 207q-55 126 -82.5 274t-27.5 315z" />
<glyph unicode=")" horiz-adv-x="709" d="M81 -206q63 17 119 75.5t98 158.5q47 104 72.5 234.5t25.5 280.5q0 145 -25 276.5t-69 236.5q-92 204 -218 236l22 148q86 -20 162.5 -100t133.5 -208q56 -126 83.5 -276t27.5 -313q0 -167 -27.5 -315t-83.5 -274q-57 -128 -133.5 -207t-162.5 -103z" />
<glyph unicode="*" horiz-adv-x="982" d="M100 996v126h294l-169 284l108 66l163 -272l170 279l108 -66l-177 -291h295v-126h-274l141 -232l-108 -66l-156 258l-151 -251l-108 66l136 225h-272z" />
<glyph unicode="+" horiz-adv-x="990" d="M142 566v120h286v286h120v-286h284v-120h-284v-286h-120v286h-286z" />
<glyph unicode="," horiz-adv-x="466" d="M120.5 -138.5q-3.5 8.5 5.5 18t36 16.5q4 2 16 7t24 16t23.5 28t16.5 43q-41 4 -59 31t-15.5 58t24 55.5t60.5 24.5q57 -3 83.5 -46t10.5 -99q-8 -28 -26 -55t-41.5 -49t-50 -38t-51.5 -20q-23 -6 -38 -2.5t-18.5 12z" />
<glyph unicode="-" horiz-adv-x="1017" d="M122 570v120l760 2v-120z" />
<glyph unicode="." horiz-adv-x="445" d="M120 102q0 44 29 73t73 29t73 -29t29 -73t-29 -73t-73 -29t-73 29t-29 73z" />
<glyph unicode="/" horiz-adv-x="909" d="M142 -144l496 1436l114 -36l-496 -1436z" />
<glyph unicode="0" horiz-adv-x="1137" d="M111 639q0 103 24.5 211t76.5 199t131.5 154t190.5 75q3 0 5.5 1t4.5 1h4q84 -2 152 -32t120.5 -79t91 -113t62.5 -135t35 -143.5t11 -138.5q0 -67 -13 -141t-38 -145t-63 -135t-89 -112.5t-114.5 -78t-141.5 -29.5q-114 5 -198.5 66.5t-140.5 154.5t-83.5 205t-27.5 215 zM231 639q0 -90 22.5 -181.5t64.5 -165.5t103 -121.5t139 -48.5q80 0 143 46t107.5 120.5t67 167.5t22.5 183q0 95 -23 187t-67.5 165t-107.5 118t-142 46q-78 0 -139 -45t-103 -118.5t-64.5 -165.5t-22.5 -187z" />
<glyph unicode="1" horiz-adv-x="727" d="M142 914l305 368h123v-1282h-123v1084l-205 -250z" />
<glyph unicode="2" horiz-adv-x="1011" d="M126 0v126q160 160 271 269t185 181t116.5 115.5t65.5 73.5q24 66 20 135.5t-33 126t-82.5 92t-126.5 33.5q-92 3 -148 -34.5t-87 -95.5t-41.5 -125t-10.5 -125h-126q0 137 34.5 233.5t92.5 156.5t133 88t154 28q83 0 160 -39t129 -109t71 -164t-12 -204 q-30 -50 -90 -122t-138 -156.5t-168.5 -177t-180.5 -180.5h595v-126h-783z" />
<glyph unicode="3" horiz-adv-x="1080" d="M152 282l122 33q23 -90 95 -140.5t167 -50.5q110 0 186 74q78 74 78 183t-78 186q-77 77 -186 77h-50v122h50q76 0 136 58t60 136q0 46 -22 84t-57 62.5t-78.5 37t-86.5 11.5q-46 0 -87 -17.5t-69.5 -47.5t-41 -72.5t0.5 -91.5l-125 -24q-19 72 1.5 141t67.5 123t113 85 t140 30q68 0 133.5 -21t117 -61.5t84 -100.5t33.5 -138q0 -76 -32 -139t-92 -107q90 -52 143 -138.5t53 -194.5q0 -78 -31 -147.5t-84.5 -121.5t-125 -83t-151.5 -31q-132 0 -242 80q-108 80 -142 204z" />
<glyph unicode="4" horiz-adv-x="1111" d="M78 231v126l686 921h118v-921h144v-126h-144v-231h-126v231h-678zM237 357h519v717z" />
<glyph unicode="5" horiz-adv-x="1108" d="M152 548v730h738v-132h-611v-393q123 120 295 119q92 0 171.5 -35.5t138 -95t92.5 -138.5t34 -167q0 -91 -34 -170.5t-92.5 -138.5t-138 -94t-171.5 -35q-150 0 -265 89q-114 87 -155 229l120 32q28 -98 112 -164q82 -62 188 -62q64 0 121 24.5t99.5 67t67 99.5t24.5 121 t-24.5 121t-67 100t-99.5 68t-121 25q-106 0 -188 -60q-84 -60 -107 -140h-127z" />
<glyph unicode="6" horiz-adv-x="1131" d="M142 434q0 68 22 133t60 117l376 609l108 -65l-234 -374q42 10 104 10q90 0 168.5 -33t138 -91.5t93 -137t33.5 -168.5q0 -89 -33.5 -168.5t-93 -138.5t-138 -94t-168.5 -35t-170 35t-138 94t-93 138.5t-35 168.5zM268 434q0 -132 89 -221t221 -89q130 0 218 89 q89 89 89 221q0 62 -24 118t-66 98.5t-98.5 67t-118.5 24.5q-65 0 -121.5 -24.5t-98.5 -67t-66 -98.5t-24 -118z" />
<glyph unicode="7" horiz-adv-x="1134" d="M128 1154v126h894v-128l-720 -1152h-149l720 1154h-745z" />
<glyph unicode="8" horiz-adv-x="984" d="M117 364q0 108 54.5 194.5t144.5 134.5q-64 41 -105 110.5t-41 154.5q0 65 24.5 123.5t67 102t100.5 69t124 25.5q64 0 121 -25.5t101 -69t69 -102t25 -123.5q0 -85 -41 -154.5t-109 -110.5q92 -48 147.5 -134.5t55.5 -194.5q0 -76 -29.5 -143.5t-78.5 -117t-117 -78.5 t-144 -29t-144 29t-117 78.5t-78.5 117t-29.5 143.5zM240 364q0 -103 72 -172q74 -70 174 -70q102 0 172 70q71 70 71 172q0 101 -71 174q-70 72 -172 72q-52 0 -96.5 -19t-78 -52t-52.5 -78t-19 -97zM292 958q0 -79 56 -134q56 -56 138 -56t136 56q54 55 54 134 q0 41 -14 77t-39.5 61.5t-61 40.5t-75.5 15t-76 -15t-62 -40.5t-41 -61.5t-15 -77z" />
<glyph unicode="9" horiz-adv-x="1123" d="M105 846q0 88 33.5 168t93 139t138 93.5t168.5 34.5t170 -34.5t138 -93.5t93 -139t35 -168q0 -69 -22 -133.5t-60 -116.5l-376 -610l-108 65l234 375q-42 -10 -104 -10q-90 0 -168.5 33t-138 91t-93 137t-33.5 169zM231 846q0 -63 24 -118.5t66 -98.5t98.5 -67.5 t118.5 -24.5q65 0 121.5 24.5t98.5 67.5t66 98.5t24 118.5q0 132 -89 220q-89 89 -221 89q-130 0 -218 -89q-89 -88 -89 -220z" />
<glyph unicode=":" horiz-adv-x="469" d="M120 296q0 48 32 81t80 33t81 -33t33 -81t-33 -80.5t-81 -32.5t-80 32.5t-32 80.5zM123 774q0 48 32.5 81t80.5 33t81 -33t33 -81t-33 -80t-81 -32t-80.5 32t-32.5 80z" />
<glyph unicode=";" horiz-adv-x="459" d="M120 288q0 22 9 42.5t24 35.5t36 23.5t45 8.5q30 0 52.5 -14.5t37 -36t18.5 -47.5t0 -50v-4q-4 -30 -18.5 -60t-35 -56t-45 -46t-51.5 -28q-22 -10 -39 -7.5t-22 10t3 18.5t36 23q4 2 12 7t19 15t20 24t13 34q-48 0 -81 31.5t-33 76.5zM120 771q0 47 32 80t80 33t81 -33 t33 -80t-33 -80t-81 -33t-80 33t-32 80z" />
<glyph unicode="&#x3c;" horiz-adv-x="1414" d="M135 704v115l1059 457l48 -110l-936 -406l936 -403l-48 -111z" />
<glyph unicode="=" horiz-adv-x="909" d="M120 548v120h654v-120h-654zM120 838v120h654v-120h-654z" />
<glyph unicode="&#x3e;" horiz-adv-x="1414" d="M135 357l936 403l-936 406l48 110l1059 -457v-115l-1059 -458z" />
<glyph unicode="?" horiz-adv-x="1015" d="M110 882q0 38 6 66q8 69 43.5 130.5t88 106.5t117.5 70t136 21q84 0 153 -29t118.5 -78t78.5 -114t34.5 -137t-15.5 -146t-70 -140q-41 -32 -84.5 -64t-78 -70.5t-55.5 -84t-18 -103.5h-124v8q-4 68 21 124t65 105t89 90t96 80q51 72 55.5 148.5t-27 141t-93.5 106.5 t-145 42q-63 0 -120 -29.5t-94.5 -77.5t-50 -111.5t13.5 -135.5l-122 -39q-18 56 -18 120zM412 86q0 38 26 64t63 26q39 0 66 -26t27 -64q0 -40 -27 -67t-66 -27q-37 0 -63 27t-26 67z" />
<glyph unicode="@" horiz-adv-x="1633" d="M92 747q-6 99 19 193t75.5 177t121 152t155.5 118.5t180 77t194 27.5q138 2 261.5 -43t217.5 -128t149.5 -202t56.5 -265q2 -95 -30 -188t-91 -170.5t-139 -131.5t-176 -68q-87 -12 -123.5 19t-47.5 97q-126 -116 -270 -116q-87 -2 -147 41.5t-94.5 112t-46 150 t0.5 158.5q8 80 48.5 158t103.5 140.5t141 99t159 35.5q100 -1 165.5 -54.5t104.5 -132.5l57 163l107 -37l-216 -612q-17 -58 4 -89l10 -13q82 -5 148 35.5t113 105t73 143t30 149.5q0 121 -48 218t-127 164.5t-181 104t-213 38.5q-126 2 -239.5 -48.5t-198.5 -137.5 t-135.5 -201t-50.5 -240t48 -240t132 -200.5t195.5 -137.5t241.5 -51q76 0 152.5 17.5t146 50.5t127.5 81.5t97 113.5l91 -65q-90 -151 -247 -233.5t-360 -84.5q-174 0 -312 62t-234 164.5t-147 237.5t-52 285zM461 649.5q3 -61.5 24.5 -115.5t62 -89t97.5 -29 q61 1 116 28.5t99 73.5t76.5 107.5t47.5 132.5q14 55 8.5 111.5t-28 101.5t-61.5 73t-93 28q-66 0 -123 -26t-100.5 -70t-73 -101t-39.5 -117q-16 -47 -13 -108.5z" />
<glyph unicode="A" horiz-adv-x="1330" d="M63 0l540 1440h126l521 -1440h-130l-187 546h-552l-191 -546h-127zM424 674h461l-225 604z" />
<glyph unicode="B" horiz-adv-x="1189" d="M204 2v1429h472q74 -1 139 -33.5t115 -86t79 -123.5q30 -72 30 -153q0 -76 -31 -154q-32 -81 -104 -157q66 -61 99 -138.5t37 -157.5q1 -12 1 -24q0 -68 -20 -132q-23 -76 -70.5 -136t-115 -96.5t-151.5 -37.5h-480zM328 790l377 -2q95 20 151 92q59 74 59 172 q0 102 -85 176q-84 76 -210 76h-292v-514zM332 130h328q51 0 96.5 21t79.5 57t54 83t20 99t-20 101t-54 86.5t-79.5 60t-96.5 22.5h-328v-530z" />
<glyph unicode="C" horiz-adv-x="1374" d="M122 716q0 150 50 281t136 228.5t202.5 154.5t248.5 57q126 0 240 -53.5t204 -144.5l-83 -99q-96 90 -198 125q-80 28 -157 28q-21 -1 -41 -3q-96 -10 -182 -58t-150.5 -125.5t-101 -178t-36.5 -214.5v-12q0 -116 37 -214q39 -104 104 -181t152 -124t183 -53q13 -1 26 -1 q83 -1 169 33q99 38 188 129l87 -93q-87 -96 -201 -149t-240 -53q-132 0 -248.5 57t-202.5 154t-136 228.5t-50 280.5z" />
<glyph unicode="D" horiz-adv-x="1402" d="M204 3v1439h448q60 0 119 -15t113 -42t101 -65t86 -82q95 -113 140.5 -245t45.5 -277q0 -150 -45.5 -279t-133.5 -229q-80 -98 -184.5 -150t-221.5 -55h-468zM330 134h320q109 0 197.5 53t151.5 138t97 188t34 205q0 108 -34 215t-96 191.5t-150 137t-196 52.5h-324 v-1180z" />
<glyph unicode="E" horiz-adv-x="1267" d="M204 0v1438h975v-127h-847v-489h726v-126h-726v-570h848v-126h-976z" />
<glyph unicode="F" horiz-adv-x="1252" d="M204 0v1438h975v-127h-847v-489h726v-126h-726v-696h-128z" />
<glyph unicode="G" horiz-adv-x="1551" d="M122 718q0 149 50 279.5t135 228.5t198 154.5t239 56.5q16 1 31 1q77 0 151 -24q90 -30 165.5 -86t134 -133t88.5 -166h-147q-21 57 -57 108t-88 89t-121.5 60t-158.5 22q-108 0 -198.5 -52.5t-156.5 -137t-102.5 -189.5t-36.5 -211q0 -102 36.5 -206t102.5 -189.5 t156.5 -140t198.5 -56.5h10q80 0 152 32q77 34 138.5 91t107.5 131t71 156h-427v126h560l2 -126q-20 -107 -74 -204.5t-134 -171t-183.5 -118t-220.5 -44.5q-126 0 -239 57t-198 155t-135 229t-50 279z" />
<glyph unicode="H" horiz-adv-x="1395" d="M204 1438h120v-624h740v624h120l1 -1438h-120l-1 686h-740l2 -686h-120z" />
<glyph unicode="I" horiz-adv-x="469" d="M180 0v1438h128v-1438h-128z" />
<glyph unicode="J" horiz-adv-x="1006" d="M81 339l129 18q24 -83 81 -133t128 -70q51 -14 104 -14q21 0 43 2q76 8 138 42.5t102 94.5t40 143v1018h129v-1010q0 -88 -33.5 -166t-93 -136.5t-142 -93t-180.5 -34.5q-79 0 -154 25t-135.5 70t-102 107t-53.5 137z" />
<glyph unicode="K" horiz-adv-x="1306" d="M204 1438h126v-600l620 604l86 -90l-494 -482l619 -796l-99 -78l-612 786l-120 -118l2 -664h-126z" />
<glyph unicode="L" horiz-adv-x="1201" d="M204 0v1438h128v-1310h786v-128h-914z" />
<glyph unicode="M" horiz-adv-x="1675" d="M204 0v1438h120l508 -1272l510 1272h120v-1438h-120v1134l-446 -1134h-130l-442 1134v-1134h-120z" />
<glyph unicode="N" horiz-adv-x="1407" d="M204 0v1438h129h3l736 -1172v1172h126v-1438h-126l-739 1198v-1198h-129z" />
<glyph unicode="O" horiz-adv-x="1581" d="M159 718q0 149 50.5 279.5t135 228.5t198 154.5t239.5 56.5q132 0 247 -56.5t201 -154.5t135 -228.5t49 -279.5q0 -148 -49 -279t-135 -229t-201 -155t-247 -57q-126 0 -239.5 57t-198 155t-135 229t-50.5 279zM285 718q0 -102 36.5 -206t102.5 -189.5t157 -140 t199 -56.5h11q67 0 129 23q66 25 123 68.5t102.5 102t78 124.5t48.5 136.5t16 137.5q0 106 -38 211t-106 189t-161 136t-203 54q-108 0 -199 -52.5t-157 -137t-102.5 -189.5t-36.5 -211z" />
<glyph unicode="P" horiz-adv-x="1219" d="M204 0v1440l506 3v-3q85 0 159.5 -34t130.5 -91t88 -135t32 -164q0 -89 -32 -167t-88 -135.5t-132 -91.5t-162 -34l-373 -3v-585h-129zM333 716h373q120 0 202 85q82 87 82 210q0 121 -82 209q-82 86 -202 86h-373v-590z" />
<glyph unicode="Q" horiz-adv-x="1581" d="M159 718q0 149 50.5 279.5t135 228.5t198 154.5t239.5 56.5q132 0 247 -56.5t201 -154.5t135 -228.5t49 -279.5q0 -150 -49 -279.5t-137 -228.5q-10 -12 -20.5 -23t-22.5 -23l99 -74q24 -18 25.5 -43t-12 -43t-37.5 -23q-5 -1 -10 -1l-38 14l-124 93q-16 -9 -30 -17 t-29 -16q-111 -56 -247 -56q-126 0 -239.5 57t-198 155t-135 229t-50.5 279zM285 718q0 -102 36.5 -206t102.5 -189.5t157 -140t199 -56.5h14q45 0 87 11q49 13 94 37l-115 88q-26 18 -27 43t13 43t37 23t49 -13l145 -112q49 45 88 100.5t66 117.5t42 127t15 127 q0 106 -38 211t-106 189t-161 136t-203 54q-108 0 -199 -52.5t-157 -137t-102.5 -189.5t-36.5 -211z" />
<glyph unicode="R" horiz-adv-x="1332" d="M204 0v1440l506 3v-3q85 0 159.5 -34t130.5 -91t88 -135t32 -164q0 -66 -18.5 -127t-51.5 -112t-80.5 -91t-102.5 -65q-15 -6 -29 -11.5t-30 -7.5l-4 -2l232 -556l-116 -48l-248 592l-339 -3v-585h-129zM333 716h373q120 0 202 85q82 87 82 210q0 121 -82 209 q-82 86 -202 86h-373v-590z" />
<glyph unicode="S" horiz-adv-x="1141" d="M117 339l129 18q24 -83 81 -135q57 -50 128 -74q57 -19 116 -19q15 0 31 1q76 6 139 38.5t104 91t41 142.5q-6 87 -42.5 139.5t-86 81.5t-102.5 40t-93 11q-50 0 -96 8q-115 18 -190 82q-74 64 -108 148q-28 69 -28 144q0 16 1 32q7 92 54.5 170t137 129t217.5 51 q64 0 123 -17t109 -48.5t91 -76t65 -98.5q7 -20 13.5 -40.5t10.5 -41.5l-131 -33q0 53 -27 96t-68.5 73t-90.5 46q-44 14 -85 14h-10q-94 0 -158 -37t-94 -93t-30 -121q0 -67 33 -125q33 -56 98.5 -94t162.5 -40q112 0 196 -34t139 -90.5t83 -128.5t28 -147.5t-28.5 -147.5 t-84 -128.5t-138.5 -91t-195 -34.5q-79 0 -154 25t-135.5 70t-102 107t-53.5 137z" />
<glyph unicode="T" horiz-adv-x="1167" d="M32 1312v126h1110v-126h-491v-1312h-126v1312h-493z" />
<glyph unicode="U" horiz-adv-x="1458" d="M210 458v978h128v-978q0 -76 31 -136.5t84.5 -103t122 -66t142.5 -23.5q72 0 143 23.5t127 65.5t91 102t35 133v983h128v-978q0 -104 -44 -189t-117 -145q-73 -62 -167 -94q-89 -31 -184 -30h-12q-103 0 -195.5 32t-162 91.5t-110 144t-40.5 190.5z" />
<glyph unicode="V" horiz-adv-x="1200" d="M18 1392l117 45l467 -1242l468 1242l116 -45l-522 -1392h-121z" />
<glyph unicode="W" horiz-adv-x="1800" d="M74 1407l122 33l314 -1172l321 1170h117l326 -1189l314 1191l124 -33l-383 -1407h3h-118l-324 1216l-324 -1216h-108z" />
<glyph unicode="X" horiz-adv-x="1248" d="M105 69l444 649l-444 650l102 69l417 -611l417 611l102 -69l-445 -650l445 -649l-102 -69l-417 609l-417 -609z" />
<glyph unicode="Y" horiz-adv-x="1251" d="M96 1368l102 69l417 -611l417 611l102 -69l-456 -666l2 -702h-128v702z" />
<glyph unicode="Z" horiz-adv-x="1236" d="M66 0v128l915 1183h-813v127h984v-122l2 -2l-920 -1186h918v-128h-1086z" />
<glyph unicode="[" horiz-adv-x="759" d="M189 -324v1748h503v-120l-382 -2v-1503l395 1v-120z" />
<glyph unicode="\" horiz-adv-x="1260" d="M194 1539l110 48l654 -1539l-110 -48z" />
<glyph unicode="]" horiz-adv-x="759" d="M38 -200l394 -1v1503l-381 2v120h503v-1748l-516 4v120z" />
<glyph unicode="^" horiz-adv-x="1389" d="M189 412l449 1026h115l438 -1026h-133l-364 856l-374 -856h-131z" />
<glyph unicode="_" horiz-adv-x="1012" d="M106 2v98h785v-98h-785z" />
<glyph unicode="`" horiz-adv-x="702" d="M90 1640l88 84l312 -322l-88 -84z" />
<glyph unicode="a" horiz-adv-x="1173" d="M112 537q0 103 33 198.5t94 170t146 118.5t188 44q63 0 118.5 -17t102 -48t83.5 -72t62 -89v208h121l-1 -1050h-120v216q-27 -42 -65 -81t-85 -69t-101.5 -48t-114.5 -18q-102 0 -186.5 45t-145.5 121t-95 172.5t-34 198.5zM232 537q0 -73 26 -147.5t71.5 -134.5 t108 -97.5t135.5 -37.5q79 0 142 38t107 97.5t67 134t23 147.5q0 72 -25.5 144.5t-70.5 132t-107.5 97t-135.5 37.5t-135.5 -37t-108 -95t-71.5 -132t-26 -147z" />
<glyph unicode="b" horiz-adv-x="1264" d="M194 0v1438h120v-564q68 88 158 141t198 53q98 0 183 -42t148 -115t99 -170t36 -207q0 -111 -36 -208.5t-99 -169.5t-148 -114t-183 -42q-108 0 -198 51t-158 138v-189h-120zM315 540q0 -68 24 -141t69 -135t111 -101.5t151 -39.5q83 0 149 39t110.5 99.5t66.5 132.5 q19 63 18 123v17q-2 72 -27 146t-71 134t-109 96q-61 36 -133 35h-4h-4q-72 0 -135 -35q-65 -36 -113 -93.5t-75.5 -130t-27.5 -146.5z" />
<glyph unicode="c" horiz-adv-x="1101" d="M112 534q0 111 39 208.5t105 170.5t155.5 115t190.5 42q94 0 182.5 -40t157.5 -108l-76 -94q-66 68 -139 97q-66 26 -130 26h-13q-70 -3 -134 -35t-112 -88t-77.5 -130t-29.5 -162v-6q0 -86 27 -159q28 -75 77 -129t113 -86t134 -35h13q63 0 127 26q72 29 136 91l81 -88 q-67 -72 -155 -111t-182 -39q-101 0 -190.5 42t-155.5 115t-105 170t-39 207z" />
<glyph unicode="d" horiz-adv-x="1264" d="M135 534q0 110 36 207t99 170t147.5 115t182.5 42q108 0 198 -53t159 -141v564h120v-1438h-120v189q-69 -87 -159 -138t-198 -51q-98 0 -182.5 42t-147.5 114t-99 169.5t-36 208.5zM256 534v-12q0 -63 20 -128q22 -72 66 -132.5t109 -99.5t149 -39q86 0 152 39.5 t111 101.5t69 135t24 141q0 74 -28 146.5t-76 130t-112 93.5q-63 35 -136 35h-4h-4q-74 1 -134 -35q-62 -36 -107.5 -96t-71 -134t-27.5 -146z" />
<glyph unicode="e" horiz-adv-x="1185" d="M114 536v12q0 99 30 191q32 97 93 171t150.5 117.5t202.5 43.5q121 -1 214.5 -55t155.5 -140q64 -87 90 -195q17 -71 17 -141q0 -37 -5 -75h-818q8 -63 32 -122t67 -106.5t105 -77.5t143 -36q61 1 113 20t91 50t64.5 69t36.5 78l118 -44q-20 -65 -62.5 -119t-100 -93.5 t-125.5 -61.5t-136 -22q-107 2 -194 48t-150 122t-97.5 171t-34.5 195zM242 585h697q1 61 -23.5 126t-71 118t-111 87t-142.5 34q-81 0 -146 -34t-110 -87t-69 -118t-24 -126z" />
<glyph unicode="f" horiz-adv-x="817" d="M48 819v119h138l-2 133q0 77 18 143.5t56.5 116t97 78.5t140.5 29q76 0 134 -30t98 -81.5t60 -123.5t20 -155h-121q0 64 -15.5 114t-41.5 85t-61 53t-73 18q-54 0 -90 -22t-58 -58t-32 -80.5t-10 -89.5v-130h196v-119h-196v-821h-120v821h-138z" />
<glyph unicode="g" horiz-adv-x="1243" d="M135 536q0 109 36 206.5t97.5 169.5t144.5 114t178 42q103 0 191 -49t151 -129v181h120v-1074q-3 -107 -40 -199t-98 -161t-143 -109t-174 -40q-78 0 -148 28t-128 77.5t-100 120t-62 156.5l114 44q10 -54 38 -108.5t71 -99t98.5 -72t116.5 -27.5q76 0 139 38.5t108 98.5 t69 132q20 61 20 119q0 13 -1 25v162q-63 -86 -151 -133t-191 -47q-95 0 -178 42t-144.5 114.5t-97.5 170t-36 207.5zM255 536q-1 -12 -1 -25q0 -59 20 -119q23 -72 68.5 -132t111.5 -98.5t149 -38.5q71 5 131.5 42t105 96t68.5 131q20 60 20 119q0 13 -1 25q1 12 1 23 q0 59 -21 121q-25 73 -71 133.5t-109 98.5q-61 38 -132 38h-4h-4q-73 0 -134 -38q-63 -38 -108 -98.5t-69 -135.5q-21 -66 -21 -127v-15z" />
<glyph unicode="h" horiz-adv-x="1159" d="M178 -2v1442h119v-530q41 74 119 116t172 42q93 -2 166.5 -37t123.5 -97t77 -146t27 -184v-606h-118v606q-2 78 -20 141t-53 108t-87 70t-120 27q-62 -4 -114 -32t-90 -75.5t-60 -108t-23 -130.5v-606h-119z" />
<glyph unicode="i" horiz-adv-x="463" d="M182 0v1072h116l2 -1072h-118zM183 1341q0 25 16.5 42.5t42.5 17.5q25 0 42.5 -17.5t17.5 -42.5t-17.5 -42.5t-42.5 -17.5q-26 0 -42.5 17.5t-16.5 42.5z" />
<glyph unicode="j" horiz-adv-x="565" d="M-60 -224l102 60q16 -38 44 -58t64 -20q64 0 99 51t35 140v1123h116l2 -1123q0 -53 -11 -110t-40 -104t-80 -76q-49 -28 -124 -28h-5q-76 3 -125.5 44t-76.5 101zM285 1341q0 25 16.5 42.5t42.5 17.5q25 0 42.5 -17.5t17.5 -42.5t-17.5 -42.5t-42.5 -17.5 q-26 0 -42.5 17.5t-16.5 42.5z" />
<glyph unicode="k" horiz-adv-x="1075" d="M172 0v1438h122v-896l532 530l84 -84l-349 -348l408 -571l-99 -69l-396 554l-180 -179v-375h-122z" />
<glyph unicode="l" horiz-adv-x="496" d="M182 0v1438h120v-1438h-120z" />
<glyph unicode="m" horiz-adv-x="1684" d="M182 2v1068h122v-125q41 54 104.5 90t135.5 37q47 0 93.5 -15t87 -41t73 -61t50.5 -77q37 88 115.5 143t186.5 55q90 0 158.5 -39t113.5 -101.5t68.5 -139t23.5 -152.5v-642h-122v642q0 50 -15 105t-44 100t-75 73.5t-109 29.5q-54 0 -98.5 -24.5t-76.5 -66.5t-49 -98.5 t-17 -118.5v-642h-118v642q0 61 -16 116.5t-48 98.5t-77.5 68t-104.5 25q-54 -1 -98 -30.5t-75.5 -74.5t-49 -99t-17.5 -104v-642h-122z" />
<glyph unicode="n" horiz-adv-x="1162" d="M182 -2v1073h118v-161q40 74 118 116t173 42q93 -2 166.5 -37t124 -97t77.5 -146t27 -184v-606h-119v606q-1 78 -19 141t-53.5 108t-87 70t-121.5 27q-61 -4 -112.5 -32t-90 -75.5t-60 -108t-23.5 -130.5v-606h-118z" />
<glyph unicode="o" horiz-adv-x="1129" d="M112 534q0 86 27 181t81 174t135 130t191 51h5q119 0 206 -50q89 -50 147 -129t85.5 -174.5t27.5 -182.5q0 -84 -28.5 -178t-85.5 -173t-142.5 -131t-200.5 -54q-114 4 -198 55.5t-139 129.5t-83 171.5t-28 179.5zM232 534q0 -76 22 -150.5t64 -133t103 -95.5t137 -38 q81 0 144 36t106.5 96t66 134.5t22.5 150.5q0 78 -22.5 153t-66.5 133.5t-110 94t-152 35.5q-74 0 -131.5 -35.5t-98 -94t-62.5 -133.5t-22 -153z" />
<glyph unicode="p" horiz-adv-x="1260" d="M178 -384v1454h120v-191q68 87 159 139t195 52q98 0 183 -42t147 -116t98 -172t36 -210t-36 -210t-98 -171t-147 -115.5t-183 -42.5q-104 0 -195 52.5t-159 142.5v-570h-120zM300 524q0 -76 27 -149t75 -132t112 -95q61 -34 130 -34h8h7q70 0 130 36q63 38 108 98 t70.5 134t26.5 148q1 10 1 21q0 57 -19 119q-22 74 -66 135t-109.5 100.5t-148.5 39.5q-84 0 -150 -40.5t-111 -102t-68 -136.5t-23 -142z" />
<glyph unicode="q" horiz-adv-x="1260" d="M135 530q0 112 36 210t98.5 172t147 116t181.5 42q106 0 196.5 -52t157.5 -139v191h120v-1454h-120v570q-67 -90 -157.5 -142.5t-196.5 -52.5q-97 0 -181.5 42.5t-147 115.5t-98.5 171t-36 210zM256 530q2 -74 27.5 -148t70.5 -134t108 -98q59 -36 129 -36h7h8 q69 0 130 34q65 36 113 95t75 132t27 149q0 67 -23.5 142t-68.5 136.5t-111 102t-150 40.5t-148 -39.5t-108.5 -100.5t-65.5 -135q-20 -67 -20 -129v-11z" />
<glyph unicode="r" horiz-adv-x="787" d="M182 -2v1073h118v-161q40 74 118 116t173 42q39 -2 73 -8t65 -18l-45 -110q-42 14 -98 18q-61 -4 -112.5 -32t-90 -75.5t-60 -108t-23.5 -130.5v-606h-118z" />
<glyph unicode="s" horiz-adv-x="1003" d="M130 254l120 14q10 -37 34.5 -64.5t60.5 -46.5t79.5 -29t88.5 -11q51 0 98 12.5t83 36t57 57t23 75.5q0 58 -28.5 94.5t-69 57.5t-86.5 30t-78 9q-86 0 -153.5 25.5t-114 67.5t-70.5 97t-24 111q0 54 22.5 105t67 91t109.5 65t153 25q54 0 104.5 -14t95 -37t78 -56 t54.5 -73q8 -16 14 -31t8 -31l-118 -26q-9 41 -33 69.5t-56.5 46.5t-69.5 25.5t-75 7.5q-78 0 -130.5 -25.5t-78 -63t-25.5 -82.5t27 -83.5t80 -64.5t135 -28q127 0 211.5 -45t127.5 -112t43 -147t-42 -147t-127 -113t-212 -46q-69 0 -133.5 19t-116 52.5t-87 80 t-46.5 102.5z" />
<glyph unicode="t" horiz-adv-x="727" d="M58 960v120h125l1 286h120v-286h182v-118l-182 -2v-662q0 -84 35 -132t101 -48q52 0 89.5 38.5t37.5 122.5h119q0 -45 -14 -94.5t-42 -91t-74 -68.5t-109 -28h-6q-75 1 -125 27q-52 28 -81 72.5t-40.5 98.5t-11.5 103v662h-125z" />
<glyph unicode="u" horiz-adv-x="1162" d="M180 465v606h118v-606q2 -78 20 -141t53 -108t87 -69.5t121 -26.5q61 3 113 31.5t90 75.5t60 108t24 130v606h118v-1073h-118v161q-41 -73 -119 -115t-173 -42q-92 1 -166 36.5t-125 97.5t-77 146t-26 183z" />
<glyph unicode="v" horiz-adv-x="1057" d="M96 1014l108 57l328 -893l330 890l108 -57l-373 -1011h-126z" />
<glyph unicode="w" horiz-adv-x="1533" d="M57 1023l114 42l291 -811l240 817h116l240 -815l290 812l114 -42l-367 -1026h-87l-248 842l-248 -842h-88z" />
<glyph unicode="x" horiz-adv-x="1005" d="M105 70l336 461l-336 461l96 72l313 -431l316 431l96 -72l-336 -461l336 -461l-96 -72l-316 431l-313 -431z" />
<glyph unicode="y" horiz-adv-x="1081" d="M96 1029l111 42l324 -864l353 865l110 -44l-625 -1535l-111 45l207 506z" />
<glyph unicode="z" horiz-adv-x="1017" d="M69 0v118l701 832h-642v121h802v-121l-705 -832h739v-118h-895z" />
<glyph unicode="{" horiz-adv-x="664" d="M96 555v120q40 0 62 18.5t32.5 44.5t12 56t1.5 52v438q0 58 11 123t39 122.5t72 100t109 56.5q7 2 13 2h12l-1 -124q-48 0 -75.5 -36t-42 -95t-18 -135t-2.5 -155t4 -157t3 -140q0 -56 -12.5 -116t-49.5 -115q43 -57 52 -141q6 -42 8 -70t2 -41q-1 -55 -5.5 -127 t-5.5 -148t3 -149.5t19 -130.5t43.5 -92.5t76.5 -35.5v-116q-71 0 -119.5 38t-78.5 95t-43.5 125t-13.5 127v414q0 24 -1.5 57t-11 63t-32.5 51t-63 21z" />
<glyph unicode="|" horiz-adv-x="1578" d="M714 2v1660h118v-1660h-118z" />
<glyph unicode="}" horiz-adv-x="664" d="M156 1688h12t14 -2q64 -14 108 -56.5t72 -100t39 -122.5t11 -123v-438q0 -22 2 -52t12 -56t32 -44.5t62 -18.5v-120q-40 0 -62.5 -21t-32 -51t-11.5 -63t-2 -57v-414q0 -59 -13 -127t-43 -125t-79 -95t-119 -38v116q48 0 76 35.5t43 92.5t19 130.5t3 149.5t-5 148t-6 127 q0 27 9 111q12 86 54 141q-37 55 -50 115t-13 116q0 62 3 140t4.5 157t-2 155t-18 135t-42 95t-75.5 36z" />
<glyph unicode="~" horiz-adv-x="1188" d="M160 648q-1 45 17.5 89.5t50.5 80.5t71.5 58t81.5 26q59 6 107.5 -9t92 -41t82.5 -55t78 -50q41 -30 74.5 -34.5t57.5 29.5q7 17 12.5 41.5t10.5 56.5l118 -14q4 -38 -7 -79t-34 -74t-57 -53t-74 -18q-71 0 -124.5 29t-102 65t-99.5 64.5t-118 27.5q-30 -5 -52 -19.5 t-35.5 -35.5t-21 -46t-10.5 -53q-30 4 -59.5 7.5t-59.5 6.5zM513 777q1 0 5 -3z" />
<glyph unicode="&#xad;" horiz-adv-x="1017" d="M122 570v120l760 2v-120z" />
<glyph unicode="&#xde;" horiz-adv-x="1681" d="M50 742v120q12 122 73 209t150 138t194.5 65t207 -10.5t187.5 -87.5t136 -168v-873h421v1143h120v-1278h-661v966q-32 72 -94 115t-138 60t-156 7t-148 -45t-114 -95t-54 -144l218 -2v-517l1 -1q24 8 55 8q36 0 68.5 -14t56.5 -38t38.5 -56t14.5 -68t-14.5 -68.5 t-38.5 -56.5t-56.5 -37.5t-68.5 -13.5t-68 13.5t-56 37.5t-37.5 56.5t-13.5 68.5v566h-223zM378 172q0 -26 19.5 -46.5t49.5 -20.5q31 0 52 20.5t21 46.5q0 32 -21 54t-52 22q-30 0 -49.5 -22t-19.5 -54zM876 -183q0 57 39 96t96 39t96 -39t39 -96q0 -30 -13.5 -57 t-34.5 -45q39 -17 93.5 -14.5t105 29.5t86 81.5t35.5 140.5h121q0 -84 -29.5 -150t-75.5 -111t-106 -67.5t-120 -22.5q-74 -1 -129 15t-93 39t-60 47.5t-29 41.5q-7 16 -14 34t-7 39zM962 -182q0 -20 13 -35t35 -15t36 15t14 35q0 22 -14 36t-36 14t-35 -14t-13 -36z" />
<glyph unicode="&#xff;" horiz-adv-x="4608" d="M172 291q2 99 8 188t22 177q6 22 12 48l12 52t12 50t16 40q6 15 11 30t13 32q13 34 37.5 61t47.5 55q18 24 54 47t78 37t84.5 16t74.5 -12q52 -26 91 -68t62 -94t29.5 -109.5t-5.5 -114.5q-5 -27 -20.5 -51t-28.5 -48q-26 -43 -78.5 -72.5t-114 -44.5t-123 -16.5 t-106.5 12.5q-56 16 -87 43q-15 -129 -13 -259.5t6 -259.5q-2 -22 -15.5 -35t-29 -14t-30 10.5t-15.5 35.5q0 23 -1 59t-1 75.5t-1 75t-1 54.5zM294 678q2 -15 8.5 -28.5t23.5 -27.5q37 -31 91 -39.5t108 1.5t102.5 35t78.5 61q24 28 35 63t9 71t-13 71t-31 65 q-18 28 -49 57t-71 27q-6 0 -9 -1t-5 -1q2 -2 -6 -2t-12 -1l-16 -6q-8 -3 -10 -3q-3 -2 -6 -2q-24 -13 -48 -25t-45 -30q-47 -43 -74.5 -101t-44.5 -116q-4 -17 -8.5 -34.5t-7.5 -33.5zM376 194q2 49 32 92.5t73.5 78t94 58t92.5 33.5q16 4 35.5 5t39 -2t36 -13t25.5 -26 q6 -9 8 -18.5t6 -20.5q1 -5 1.5 -8.5t0.5 -8.5q2 0 11 -2q-3 -29 -13.5 -57.5t-27.5 -56.5q-7 -30 -7.5 -59t9.5 -54q9 -3 14 -6q40 17 80.5 47t79.5 68q4 74 21.5 153t41 153t48 136t43.5 103q10 19 31 60t49 80.5t60.5 69.5t63.5 30q20 0 38 -6t36 -9l40 -40 q5 -18 9.5 -36t7.5 -38q5 -24 -8 -66t-33 -86t-40.5 -82.5t-29.5 -55.5q-62 -108 -133 -207.5t-157 -189.5q-1 -35 6.5 -68t25.5 -61q45 -3 84 38.5t71.5 98.5t57.5 116t42 92q5 9 14 24t21 30t24.5 25.5t24.5 11.5q45 6 65 -16t25 -57q15 15 31 28t34 25q14 8 39 10t40 -6 q27 -12 42 -30t23 -39q2 3 7 7t7 6q14 11 31 23.5t37 21t39 11t37 -8.5q8 -9 13 -18t13 -18q2 -35 -6.5 -68t-20.5 -66t-25.5 -65t-22.5 -65q-1 -7 -5 -20t-6 -26.5t-3 -25t3 -15.5q38 18 70 57t57 86t43 97.5t27 89.5q0 2 0.5 3t0.5 3q22 -6 44 -11t44 -13l-10 -32 q-12 -49 -29 -98.5t-29 -100.5q-2 -3 -5.5 -17t-6 -31t-1.5 -32.5t9 -21.5q10 -7 24 -8t28.5 2t29 8t26.5 10q18 6 37 17q0 64 21.5 134.5t63.5 126t103 84t139 9.5q15 -6 28 -18q23 -22 26.5 -47t-3.5 -51t-23 -50t-34 -42q-48 -48 -100 -97t-110 -89q18 -7 47 -3.5 t63 14.5t69 26.5t63 32.5q19 6 34.5 1t24 -16t8 -27.5t-14.5 -31.5q-70 -38 -143 -63t-167 -23q-26 2 -44 13t-28 27q-16 -6 -30 -11.5t-29 -10.5q-95 -28 -143.5 -2.5t-59.5 86.5l-13 -13q-21 -19 -46.5 -35t-52 -21t-50.5 6t-40 45q-16 35 -12.5 74.5t17 80.5t31.5 81 t30 80q-33 -30 -63.5 -68t-58.5 -80q-18 -43 -36 -86.5t-36 -87.5q-20 11 -40 20.5t-40 19.5q14 68 58 148q6 14 12 27t14 27q12 27 19 57.5t3 45.5t-22 7t-59 -59q-24 -30 -43.5 -60.5t-37.5 -62.5q-8 -20 -17.5 -38.5t-20.5 -36.5q-12 -27 -23 -55t-23 -56l-70 34 q-4 2 -7 3t-5 2q0 1 2 7q8 30 22 59.5t30 59.5q8 19 17 37l19 38q24 52 24 105q0 -1 -1 -2t-1 -3q-22 -40 -41 -83.5t-40 -85.5q-19 -36 -45.5 -81t-61 -81t-77.5 -55.5t-93 -5.5q-24 6 -40 18q-20 20 -33 50t-19 66q-15 -13 -29.5 -25.5t-28.5 -24.5q-68 -58 -129 -41 t-89 93q-30 -28 -63 -49t-65 -33q-40 -16 -75 -10.5t-62 26t-42 53.5t-13 75zM468 190.5q-8 -28.5 10 -52.5q8 -10 20 -12t24 2t23 9t19 10q44 24 81 58.5t60 79.5q3 7 13 35q4 4 4.5 8.5t3.5 9.5q0 2 1 4t1 3q2 6 2 9l-4 14q-16 7 -46 -0.5t-64 -24.5t-65.5 -42t-53 -53.5 t-29.5 -57zM1076 369q58 73 107 149t83 138q15 26 34.5 60t34.5 70t22 73t-1 71l-22 4q-54 -49 -94 -112t-69 -132.5t-50 -142.5t-37 -143q-2 -10 -4 -18t-4 -17zM1988 522.5q-2 26.5 10 50t34 42t46.5 27.5t47 6.5t37.5 -20.5q13 -18 12.5 -46t-12.5 -55t-31.5 -49 t-43.5 -28q-20 -3 -39 2.5t-35 19.5q-24 24 -26 50.5zM2053 543q-5 -12 3 -24q8 -9 19 -2t21 19.5t15 25t-1 17.5t-18 0t-23 -14.5t-16 -21.5zM2274 172q48 35 89 75.5t76 79.5q12 12 24 29.5t9 29.5q-12 6 -29 3.5t-34 -10t-32.5 -18t-26.5 -21.5q-26 -26 -46.5 -73 t-29.5 -95zM3034 225.5q-12 48.5 4 95.5q12 17 27.5 22t29 0t21.5 -19.5t6 -33.5q-10 -30 5 -67t43 -68.5t64 -49t68 -7.5q24 7 44 23.5t36.5 36.5t29 43t22.5 45q25 57 38.5 119.5t17.5 126t1 127t-9 125.5q-4 32 -17 80t-15 91q-63 -5 -116.5 -8t-79.5 9q-17 11 -23 26 t-2.5 28.5t16.5 23.5t34 10q33 -14 76.5 -12t94 8t104.5 10t106 -6q10 -4 24.5 -13t14.5 -40q-3 -17 -10 -25t-17 -10t-22 -1.5t-26 1.5q-20 4 -38.5 4h-39.5q0 -5 -1 -9.5t1 -7.5q3 -17 6 -33t6 -33q8 -43 13 -80t7 -81q4 -80 1 -163t-20 -161.5t-51 -152t-91 -136.5 q-39 -43 -87 -54t-94.5 3t-89 46t-71.5 75.5t-41 92zM3647.5 256.5q3.5 52.5 2.5 101.5q0 24 14 38t30.5 15t30 -10t13.5 -35q0 -36 -7.5 -85t-6 -91.5t21 -72t73.5 -27.5q31 6 47 36t21 73.5t3 94.5t-6 100q20 -2 42 -4t43 -3q3 -42 3 -87t2 -84t7.5 -67.5t18.5 -34.5 q28 -12 57 -10.5t45 26.5q6 14 20 19t27 3t24 -12t11 -29q-5 -25 -20 -44t-35.5 -32t-42.5 -18t-45 -5q-43 0 -70 18t-44 46q-30 -43 -71.5 -65.5t-96.5 -0.5q-57 23 -80 61.5t-29 85.5t-2.5 99.5zM4273.5 116q7.5 26 40.5 40q12 3 20 3v1q43 2 68.5 -19t30.5 -48t-12 -52.5 t-57 -31.5q-30 -5 -53.5 12.5t-34 43t-3 51.5z" />
<glyph unicode="&#x152;" d="M-740 1556q26 13 51 33.5t43.5 42t28 41t8.5 33.5l-7 2q-30 5 -53.5 20t-39 36.5t-21.5 48.5t0 55q4 28 20 51t38 38t50 22t58 1q56 -14 86 -49t34 -82t-17 -102t-67 -106q32 0 80 13.5t92 44.5t74 78t27 113l119 6q2 -56 -18 -111t-59 -103t-95 -84t-124 -53 q-76 -19 -159.5 -18t-148.5 29zM-646 1830q4 -22 24 -35t43 -9q24 6 36.5 26.5t8.5 43.5q-4 22 -24.5 35t-44.5 8q-23 -6 -36 -26.5t-7 -42.5z" />
<glyph unicode="&#x153;" d="M-808 2024q25 13 48.5 32.5t41.5 40.5t27.5 40.5t8.5 32.5l-8 4q-28 4 -51 18t-38 35t-21 47t0 52q5 28 20 51t36.5 38t48.5 21t56 0q54 -14 83.5 -48t33.5 -80t-16 -98.5t-65 -101.5q31 0 77 13t89 42.5t72 75t26 110.5l115 6q4 -54 -15 -106.5t-56.5 -96.5t-91.5 -78 t-120 -50q-75 -20 -148.5 -18.5t-152.5 18.5zM-718 2290q4 -20 23.5 -33t42.5 -9q22 6 35 26t8 42q-5 21 -24 33.5t-43 8.5q-22 -6 -35 -25.5t-7 -42.5z" />
<glyph unicode="&#x178;" d="M-555.5 2189q5.5 35 27.5 69q28 40 66 61t79 32t82 17t76.5 16t59.5 27t33 53l102 -24q-10 -44 -40 -71t-67 -43t-76 -23t-69 -10.5t-46.5 -8t-7.5 -13.5q58 -31 71 -85t-17 -104q-30 -54 -87 -70t-109 14q-26 14 -45.5 39.5t-28.5 57t-3.5 66.5zM-467 2133q5 -25 26 -33 q23 -12 49 -7t38 27q10 22 3 47t-31 35q-17 9 -41 4.5t-39 -26.5q-10 -22 -5 -47z" />
<glyph unicode="&#x2c6;" d="M-1083 1716q-1 33 5.5 76.5t24 81t47.5 64t74 26.5q29 0 56 -20.5t52 -73.5q26 53 60.5 77t69.5 19q44 0 73 -30.5t43 -77t15.5 -102t-9.5 -104.5q23 -2 48.5 30t42.5 80t22.5 104.5t-12.5 103.5h114q9 -40 7.5 -90t-15 -102.5t-40.5 -101t-68 -82.5t-100 -48t-133 2 q26 32 39 82t12 99t-13.5 86t-37.5 43q-22 5 -47 -23.5t-31 -80.5h-74q-22 106 -76 97q-18 -5 -30 -19t-17.5 -30.5t-5.5 -32t7 -25.5h6q50 17 94 -3.5t61 -68.5q7 -22 5 -47t-12.5 -46t-28.5 -37t-42 -26q-43 -10 -78 1t-59.5 38t-37 69t-11.5 92zM-989 1636.5 q-1 -19.5 13 -36.5q12 -13 33 -14.5t37 10.5q15 15 16.5 36.5t-13.5 33.5q-12 14 -32.5 14t-34.5 -12q-18 -12 -19 -31.5z" />
<glyph unicode="&#x2dc;" d="M-1012 1646q1 31 14.5 58.5t36 49.5t50 34t59.5 12q40 3 77 -15t62.5 -49.5t35 -71.5t-2.5 -80l-2 -10q42 2 87 19.5t82 47.5t60 70.5t21 90.5q33 0 66 -1t66 -1q3 -81 -39 -145.5t-109.5 -111t-150 -73t-160.5 -32.5q-49 -1 -96 8.5t-82 33.5t-55 65t-20 101zM-909 1626 q0 -27 19.5 -46.5t46.5 -19.5q29 0 47.5 19.5t18.5 46.5q0 30 -18.5 49.5t-47.5 19.5q-27 0 -46.5 -19.5t-19.5 -49.5z" />
<glyph unicode="&#x2000;" horiz-adv-x="1232" />
<glyph unicode="&#x2001;" horiz-adv-x="2464" />
<glyph unicode="&#x2002;" horiz-adv-x="1232" />
<glyph unicode="&#x2003;" horiz-adv-x="2464" />
<glyph unicode="&#x2004;" horiz-adv-x="821" />
<glyph unicode="&#x2005;" horiz-adv-x="616" />
<glyph unicode="&#x2006;" horiz-adv-x="410" />
<glyph unicode="&#x2007;" horiz-adv-x="410" />
<glyph unicode="&#x2008;" horiz-adv-x="308" />
<glyph unicode="&#x2009;" horiz-adv-x="492" />
<glyph unicode="&#x200a;" horiz-adv-x="136" />
<glyph unicode="&#x2010;" horiz-adv-x="1017" d="M122 570v120l760 2v-120z" />
<glyph unicode="&#x2011;" horiz-adv-x="1017" d="M122 570v120l760 2v-120z" />
<glyph unicode="&#x2012;" horiz-adv-x="1017" d="M122 570v120l760 2v-120z" />
<glyph unicode="&#x2013;" horiz-adv-x="1117" d="M141 555v117h954v-117h-954z" />
<glyph unicode="&#x2014;" horiz-adv-x="1420" d="M186 543v119l1202 -2v-118z" />
<glyph unicode="&#x2018;" horiz-adv-x="390" d="M74 1174q2 32 16.5 66.5t35.5 64.5t47.5 53.5t54.5 33.5q26 10 44 10t24.5 -8t-2.5 -21.5t-38 -26.5q-4 -4 -15 -12t-23 -22t-21 -36t-9 -50q46 6 74 -20t33 -60t-14 -67t-63 -43q-34 -4 -61.5 4t-46 28t-28.5 47.5t-8 58.5z" />
<glyph unicode="&#x2019;" horiz-adv-x="390" d="M103 1038.5q-7 8.5 2 22t37 27.5q5 2 16.5 10.5t23.5 23t21 35.5t9 51q-48 -6 -75 19t-32.5 60t13 68t64.5 41q32 5 59 -4t47 -27.5t29.5 -46.5t8.5 -60q-4 -31 -18 -65.5t-35 -64.5t-47 -53t-55 -34q-25 -12 -43 -11.5t-25 9z" />
<glyph unicode="&#x201a;" d="M-1197 1442v100q31 94 111 148t177 71.5t197 -1t174 -70.5v148h110v-396h-769zM-1077 1542h531q-40 64 -114.5 96.5t-155 32.5t-152.5 -32.5t-109 -96.5z" />
<glyph unicode="&#x201e;" d="M-1197 1442v100q24 70 74.5 119t117 76t142 32t151.5 -11v82l112 -1v-119q15 -7 28.5 -14.5t25.5 -15.5v148h112v-396h-763zM-1077 1542h531q-40 64 -114.5 96.5t-155 32.5t-152.5 -32.5t-109 -96.5z" />
<glyph unicode="&#x2022;" horiz-adv-x="616" d="M75 711q0 78 57 135t135 57t135 -57t57 -135t-57 -135t-135 -57q-79 0 -135 55q-57 58 -57 137z" />
<glyph unicode="&#x2026;" horiz-adv-x="1033" d="M171 68q0 28 19.5 47.5t47.5 19.5q29 0 48.5 -19.5t19.5 -47.5q0 -29 -19.5 -48.5t-48.5 -19.5q-28 0 -47.5 19.5t-19.5 48.5zM448 68q0 28 20 47.5t48 19.5t48 -19.5t20 -47.5q0 -29 -20 -48.5t-48 -19.5t-48 19.5t-20 48.5zM726 68q0 28 19.5 47.5t48.5 19.5 q28 0 47.5 -19.5t19.5 -47.5q0 -29 -19.5 -48.5t-47.5 -19.5q-29 0 -48.5 19.5t-19.5 48.5z" />
<glyph unicode="&#x202f;" horiz-adv-x="492" />
<glyph unicode="&#x2039;" d="M-256 1440v404h109l-1 -404h-108z" />
<glyph unicode="&#x203a;" d="M-452 1986v404h110l-2 -404h-108z" />
<glyph unicode="&#x205f;" horiz-adv-x="616" />
<glyph unicode="&#x20ac;" horiz-adv-x="906" d="M16 861v120q0 47 20 98.5t58 95t93.5 72.5t127.5 29q43 0 89 -19t90 -43t84 -44t71.5 -20t52 28t24.5 100l111 -45q-19 -103 -57.5 -149t-86 -55t-100.5 10.5t-105 45t-97 48.5t-76 23q-24 0 -54.5 -9t-57.5 -30t-46 -54.5t-21 -81.5q48 18 103 22.5t112 1.5 q123 -6 231 -69.5t168 -191.5v-744h-120l-178 376q-17 -16 -45.5 -29.5t-70.5 -13.5q-36 0 -68 14.5t-56 38.5t-38.5 56t-14.5 68q0 52 21 90t55.5 59.5t75.5 26t80 -9.5t69 -48t44 -90l126 -270v443q-24 63 -80 106.5t-127 64.5t-146.5 16.5t-138.5 -37.5h-122zM264 510 q0 -30 21 -51t51 -21t52 21t22 51t-22 51t-52 21t-51 -21t-21 -51z" />
<glyph unicode="&#x2122;" d="M-880 1665q0 33 12.5 63t34 52t51 34.5t64.5 12.5q32 0 62 -12.5t52 -34.5t35 -52t13 -63q0 -35 -13 -64t-35 -51t-52 -34.5t-62 -12.5q-35 0 -64.5 12.5t-51 34.5t-34 51t-12.5 64zM-782 1664q0 -26 19 -44t45 -18q25 0 43.5 18t18.5 44t-18.5 45t-43.5 19 q-26 0 -45 -19t-19 -45z" />
<glyph unicode="&#x25fc;" horiz-adv-x="1065" d="M0 0v1065h1065v-1065h-1065z" />
</font>
</defs>
</svg>
